<svg width="14" height="14" viewBox="0 0 14 14" fill="none" xmlns="http://www.w3.org/2000/svg">
<path fill-rule="evenodd" clip-rule="evenodd" d="M5 0C4.44772 0 4 0.447715 4 1V4C4 4.55228 4.44772 5 5 5H6.5V6.5H4C3.44772 6.5 3 6.94772 3 7.5V9H1C0.447715 9 0 9.44771 0 10V13C0 13.5523 0.447716 14 1 14H5C5.55228 14 6 13.5523 6 13V10C6 9.44771 5.55228 9 5 9H4V7.5H10V9H9C8.44772 9 8 9.44771 8 10V13C8 13.5523 8.44772 14 9 14H13C13.5523 14 14 13.5523 14 13V10C14 9.44771 13.5523 9 13 9H11V7.5C11 6.94772 10.5523 6.5 10 6.5H7.5V5H9C9.55228 5 10 4.55228 10 4V1C10 0.447715 9.55228 0 9 0H5ZM5 1H9V4H5V1ZM5 13V10H1V13H5ZM13 13V10H9V13H13Z" fill="#6C707E"/>
</svg>
