<svg width="10" height="14" viewBox="0 0 10 14" fill="none" xmlns="http://www.w3.org/2000/svg">
<path d="M3.5 11C3.22386 11 3 11.2239 3 11.5C3 11.7761 3.22386 12 3.5 12H6.5C6.77614 12 7 11.7761 7 11.5C7 11.2239 6.77614 11 6.5 11H3.5Z" fill="#6C707E"/>
<path fill-rule="evenodd" clip-rule="evenodd" d="M0 2C0 0.89543 0.895431 0 2 0H8C9.10457 0 10 0.895431 10 2V12C10 13.1046 9.10457 14 8 14H2C0.89543 14 0 13.1046 0 12V2ZM2 1H8C8.55228 1 9 1.44772 9 2V12C9 12.5523 8.55229 13 8 13H2C1.44772 13 1 12.5523 1 12V2C1 1.44772 1.44772 1 2 1Z" fill="#6C707E"/>
</svg>
